# xmcd
#
# Track frame offsets:
#	182
#	16940
#	32905
#	46475
#	64277
#	86390
#	104975
#	118235
#	135312
#	158325
#
# Disc length: 2642 seconds
#
# Revision: 5
# Processed by: cddbd v1.5.1PL2 Copyright (c) Steve Scherf et al.
# Submitted via: dBpowerAMP V4.0
#
DISCID=810a500a
DTITLE=Travis Tritt - t-r-o-u-b-l-e
DYEAR=1992
DGENRE=Country
TTITLE0=Looking Out For Number One
TTITLE1=Can I Trust You With My Heart
TTITLE2=t-r-o-u-b-l-e
TTITLE3=When I Touch You
TTITLE4=Lord Have Mercy On The Working Man
TTITLE5=I Wish I Could Go Back Home
TTITLE6=A Hundred Years From Now
TTITLE7=Blue Collar Man
TTITLE8=Worth Every Mile
TTITLE9=Leave My Girl Alone
EXTD=Warner Bros.\nBMG D 144828\n(c) 1992
EXTT0=
EXTT1=
EXTT2=
EXTT3=
EXTT4=
EXTT5=
EXTT6=
EXTT7=
EXTT8=
EXTT9=
PLAYORDER=
